<svg xmlns="http://www.w3.org/2000/svg" xmlns:xlink="http://www.w3.org/1999/xlink" width="500" zoomAndPan="magnify" viewBox="0 0 375 374.999991" height="500" preserveAspectRatio="xMidYMid meet" version="1.0"><defs><g/><clipPath id="e9002875b1"><path d="M 7.175781 7.175781 L 367.824219 7.175781 L 367.824219 367.824219 L 7.175781 367.824219 Z M 7.175781 7.175781 " clip-rule="nonzero"/></clipPath><clipPath id="1d3797cfb0"><path d="M 187.5 7.175781 C 87.910156 7.175781 7.175781 87.910156 7.175781 187.5 C 7.175781 287.089844 87.910156 367.824219 187.5 367.824219 C 287.089844 367.824219 367.824219 287.089844 367.824219 187.5 C 367.824219 87.910156 287.089844 7.175781 187.5 7.175781 Z M 187.5 7.175781 " clip-rule="nonzero"/></clipPath><clipPath id="0bda27778c"><path d="M 72.164062 72.710938 L 301.738281 72.710938 L 301.738281 302.289062 L 72.164062 302.289062 Z M 72.164062 72.710938 " clip-rule="nonzero"/></clipPath><clipPath id="22e368910b"><path d="M 186.953125 72.710938 C 123.554688 72.710938 72.164062 124.105469 72.164062 187.5 C 72.164062 250.894531 123.554688 302.289062 186.953125 302.289062 C 250.347656 302.289062 301.738281 250.894531 301.738281 187.5 C 301.738281 124.105469 250.347656 72.710938 186.953125 72.710938 Z M 186.953125 72.710938 " clip-rule="nonzero"/></clipPath><clipPath id="c0498ddbca"><path d="M 87.894531 189 L 287.394531 189 L 287.394531 222 L 87.894531 222 Z M 87.894531 189 " clip-rule="nonzero"/></clipPath><clipPath id="a85dbf8246"><path d="M 110 153.035156 L 184 153.035156 L 184 206 L 110 206 Z M 110 153.035156 " clip-rule="nonzero"/></clipPath><clipPath id="4a3e611dd8"><path d="M 191 153.035156 L 265 153.035156 L 265 206 L 191 206 Z M 191 153.035156 " clip-rule="nonzero"/></clipPath></defs><g clip-path="url(#e9002875b1)"><g clip-path="url(#1d3797cfb0)"><path fill="#3399cc" d="M 7.175781 7.175781 L 367.824219 7.175781 L 367.824219 367.824219 L 7.175781 367.824219 Z M 7.175781 7.175781 " fill-opacity="1" fill-rule="nonzero"/></g></g><g clip-path="url(#0bda27778c)"><g clip-path="url(#22e368910b)"><path fill="#ffffff" d="M 72.164062 72.710938 L 301.738281 72.710938 L 301.738281 302.289062 L 72.164062 302.289062 Z M 72.164062 72.710938 " fill-opacity="1" fill-rule="nonzero"/></g></g><g fill="#ffffff" fill-opacity="1"><g transform="translate(62.275584, 138.638619)"><g><path d="M -24.65625 -12.625 L -15.765625 -30.609375 L -15.34375 -31.46875 L -14.5 -31.046875 L -11.625 -29.625 L -10.765625 -29.203125 L -11.1875 -28.34375 L -14.40625 -21.84375 L 5.84375 -11.828125 L 6.703125 -11.40625 L 6.28125 -10.546875 L 4.671875 -7.28125 L 4.25 -6.421875 L 3.390625 -6.84375 L -16.859375 -16.859375 L -20.078125 -10.359375 L -20.5 -9.5 L -21.359375 -9.921875 L -24.234375 -11.34375 L -25.078125 -11.765625 Z M -24.65625 -12.625 "/></g></g></g><g fill="#ffffff" fill-opacity="1"><g transform="translate(87.236231, 98.582058)"><g><path d="M -16.5625 -22.46875 L -4.921875 -33.515625 L -4.21875 -34.1875 L -3.5625 -33.484375 L -1.40625 -31.21875 L -0.75 -30.515625 L -1.453125 -29.84375 L -9.765625 -21.96875 L -5.484375 -17.453125 L 1.578125 -24.140625 L 2.28125 -24.8125 L 2.9375 -24.125 L 5.046875 -21.90625 L 5.703125 -21.21875 L 5 -20.546875 L -2.0625 -13.859375 L 3.015625 -8.5 L 11.328125 -16.375 L 12.03125 -17.046875 L 12.6875 -16.359375 L 14.84375 -14.078125 L 15.5 -13.390625 L 14.796875 -12.71875 L 3.15625 -1.671875 L 2.453125 -1.015625 L 1.796875 -1.703125 L -16.609375 -21.109375 L -17.265625 -21.8125 Z M -16.5625 -22.46875 "/></g></g></g><g fill="#ffffff" fill-opacity="1"><g transform="translate(124.574743, 69.319766)"><g><path d="M -0.9375 -1.03125 L -1.046875 -28.859375 L -1.0625 -29.515625 L -0.453125 -29.765625 L 3.21875 -31.265625 L 3.828125 -31.515625 L 4.25 -31.046875 L 23.609375 -11.109375 L 24.265625 -10.421875 L 23.578125 -9.765625 L 21.015625 -7.265625 L 20.34375 -6.578125 L 19.65625 -7.296875 L 14.46875 -12.765625 L 4.21875 -8.5625 L 4.3125 -1.0625 L 4.34375 -0.078125 L 3.390625 -0.109375 L 0.03125 -0.109375 L -0.9375 -0.0625 Z M 4.09375 -13.875 L 10.78125 -16.625 L 3.9375 -23.796875 Z M 4.09375 -13.875 "/></g></g></g><g fill="#ffffff" fill-opacity="1"><g transform="translate(174.050675, 54.575003)"><g><path d="M 6.375 -13.53125 C 6.375 -13.019531 6.394531 -12.523438 6.4375 -12.046875 C 6.488281 -11.578125 6.5625 -11.125 6.65625 -10.6875 C 6.75 -10.257812 6.863281 -9.84375 7 -9.4375 C 7.40625 -8.25 7.957031 -7.238281 8.65625 -6.40625 C 8.882812 -6.125 9.125 -5.863281 9.375 -5.625 C 9.625 -5.394531 9.882812 -5.1875 10.15625 -5 C 10.4375 -4.8125 10.738281 -4.640625 11.0625 -4.484375 C 11.976562 -4.066406 12.984375 -3.867188 14.078125 -3.890625 C 15.222656 -3.910156 16.203125 -4.050781 17.015625 -4.3125 C 17.890625 -4.601562 18.710938 -5 19.484375 -5.5 L 20.46875 -6.078125 L 20.859375 -5.03125 L 22.015625 -2.03125 L 22.34375 -1.21875 L 21.625 -0.84375 C 20.613281 -0.28125 19.472656 0.195312 18.203125 0.59375 C 16.910156 0.976562 15.421875 1.179688 13.734375 1.203125 C 11.847656 1.234375 10.113281 0.914062 8.53125 0.25 C 6.957031 -0.414062 5.585938 -1.382812 4.421875 -2.65625 C 3.296875 -3.925781 2.410156 -5.457031 1.765625 -7.25 C 1.117188 -9.050781 0.78125 -11.0625 0.75 -13.28125 C 0.71875 -15.414062 0.992188 -17.394531 1.578125 -19.21875 C 2.160156 -21.0625 3.015625 -22.648438 4.140625 -23.984375 C 5.285156 -25.359375 6.671875 -26.429688 8.296875 -27.203125 C 9.109375 -27.566406 9.96875 -27.851562 10.875 -28.0625 C 11.789062 -28.269531 12.742188 -28.378906 13.734375 -28.390625 C 15.117188 -28.410156 16.359375 -28.300781 17.453125 -28.0625 C 18.554688 -27.820312 19.601562 -27.484375 20.59375 -27.046875 L 21.375 -26.671875 L 21.125 -25.8125 L 20.0625 -22.75 L 19.703125 -21.75 L 18.734375 -22.203125 C 17.992188 -22.566406 17.234375 -22.847656 16.453125 -23.046875 C 16.203125 -23.109375 15.941406 -23.15625 15.671875 -23.1875 C 15.398438 -23.226562 15.101562 -23.257812 14.78125 -23.28125 C 14.46875 -23.300781 14.132812 -23.304688 13.78125 -23.296875 C 13.25 -23.285156 12.726562 -23.226562 12.21875 -23.125 C 11.707031 -23.019531 11.222656 -22.859375 10.765625 -22.640625 C 10.316406 -22.429688 9.894531 -22.171875 9.5 -21.859375 C 9.113281 -21.546875 8.753906 -21.179688 8.421875 -20.765625 C 8.097656 -20.359375 7.804688 -19.898438 7.546875 -19.390625 C 7.296875 -18.890625 7.066406 -18.335938 6.859375 -17.734375 C 6.503906 -16.503906 6.34375 -15.101562 6.375 -13.53125 Z M 6.375 -13.53125 "/></g></g></g><g fill="#ffffff" fill-opacity="1"><g transform="translate(222.716732, 58.355698)"><g><path d="M 22.03125 -3.609375 L 11.5 -7.640625 L 7.5 2.859375 L 7.15625 3.75 L 6.265625 3.421875 L 2.875 2.109375 L 1.984375 1.78125 L 2.328125 0.890625 L 11.875 -24.09375 L 12.203125 -24.984375 L 13.09375 -24.65625 L 16.484375 -23.34375 L 17.375 -23.015625 L 17.046875 -22.125 L 13.3125 -12.34375 L 23.84375 -8.3125 L 27.578125 -18.09375 L 27.90625 -18.984375 L 28.796875 -18.65625 L 32.1875 -17.359375 L 33.078125 -17.015625 L 32.75 -16.125 L 23.203125 8.859375 L 22.859375 9.75 L 21.96875 9.40625 L 18.578125 8.109375 L 17.6875 7.78125 L 18.03125 6.890625 Z M 22.03125 -3.609375 "/></g></g></g><g fill="#ffffff" fill-opacity="1"><g transform="translate(270.367341, 82.406796)"><g><path d="M 21.203125 -18.140625 L 33.78125 -6.65625 L 33.140625 -5.953125 L 31.03125 -3.65625 L 30.390625 -2.9375 L 29.671875 -3.59375 L 21.21875 -11.3125 L 17.015625 -6.71875 L 24.203125 -0.15625 L 24.90625 0.484375 L 24.265625 1.1875 L 22.203125 3.453125 L 21.5625 4.15625 L 20.859375 3.515625 L 13.671875 -3.046875 L 8.703125 2.40625 L 17.15625 10.125 L 17.875 10.78125 L 17.234375 11.484375 L 15.109375 13.796875 L 14.46875 14.5 L 1.890625 3.015625 L 1.1875 2.375 L 1.828125 1.671875 L 19.859375 -18.078125 L 20.5 -18.78125 Z M 21.203125 -18.140625 "/></g></g></g><g fill="#ffffff" fill-opacity="1"><g transform="translate(302.210104, 117.640759)"><g><path d="M 7.453125 16.578125 L 12.4375 10.328125 C 13.539062 8.929688 14.140625 7.582031 14.234375 6.28125 C 14.273438 5.894531 14.265625 5.488281 14.203125 5.0625 C 14.140625 4.632812 14.03125 4.1875 13.875 3.71875 C 13.71875 3.257812 13.53125 2.773438 13.3125 2.265625 L 3.625 7.171875 L 2.78125 7.609375 L 2.359375 6.75 L 0.703125 3.5 L 0.28125 2.65625 L 1.125 2.21875 L 24.921875 -9.828125 L 25.71875 -10.234375 L 26.15625 -9.46875 C 26.519531 -8.882812 26.867188 -8.3125 27.203125 -7.75 C 27.546875 -7.195312 27.875 -6.648438 28.1875 -6.109375 C 28.800781 -5.066406 29.4375 -3.894531 30.09375 -2.59375 C 30.863281 -1.070312 31.382812 0.363281 31.65625 1.71875 C 31.925781 3.082031 31.945312 4.332031 31.71875 5.46875 C 31.476562 6.625 31.023438 7.640625 30.359375 8.515625 C 29.691406 9.398438 28.820312 10.113281 27.75 10.65625 C 25.863281 11.613281 24.039062 11.8125 22.28125 11.25 C 21.15625 10.90625 20.046875 10.28125 18.953125 9.375 C 18.910156 9.625 18.859375 9.859375 18.796875 10.078125 C 18.742188 10.296875 18.65625 10.519531 18.53125 10.75 C 18.4375 11.0625 18.316406 11.363281 18.171875 11.65625 C 18.023438 11.957031 17.847656 12.273438 17.640625 12.609375 C 17.273438 13.222656 16.785156 13.914062 16.171875 14.6875 L 11.921875 20.09375 L 11.3125 20.84375 L 10.5625 20.265625 L 7.578125 17.96875 L 6.859375 17.359375 Z M 25.65625 -0.34375 C 25.457031 -0.726562 25.269531 -1.085938 25.09375 -1.421875 C 24.925781 -1.765625 24.753906 -2.082031 24.578125 -2.375 C 24.523438 -2.46875 24.46875 -2.566406 24.40625 -2.671875 C 24.34375 -2.773438 24.285156 -2.875 24.234375 -2.96875 C 24.191406 -3.0625 24.15625 -3.140625 24.125 -3.203125 L 17.75 0.03125 L 19.21875 2.921875 C 19.945312 4.367188 20.847656 5.382812 21.921875 5.96875 C 22.867188 6.445312 23.878906 6.414062 24.953125 5.875 C 25.378906 5.664062 25.726562 5.382812 26 5.03125 C 26.269531 4.675781 26.453125 4.226562 26.546875 3.6875 C 26.648438 3.15625 26.628906 2.554688 26.484375 1.890625 C 26.347656 1.222656 26.070312 0.476562 25.65625 -0.34375 Z M 25.65625 -0.34375 "/></g></g></g><g fill="#ffffff" fill-opacity="1"><g transform="translate(29.297015, 198.801537)"><g><path d="M 1.21875 -0.625 L 28.109375 6.59375 L 28.75 6.765625 L 28.828125 7.421875 L 29.328125 11.359375 L 29.40625 12 L 28.8125 12.28125 L 4.484375 25.703125 L 3.65625 26.15625 L 3.203125 25.3125 L 1.46875 22.1875 L 0.984375 21.359375 L 1.859375 20.90625 L 8.5 17.296875 L 7.140625 6.3125 L -0.125 4.4375 L -1.046875 4.203125 L -0.78125 3.28125 L 0.078125 0.046875 L 0.3125 -0.890625 Z M 12.3125 7.59375 L 13.203125 14.765625 L 21.9375 10.078125 Z M 12.3125 7.59375 "/></g></g></g><g fill="#ffffff" fill-opacity="1"><g transform="translate(35.524984, 236.383931)"><g><path d="M 27.03125 -6.609375 C 27.445312 -5.785156 27.921875 -4.765625 28.453125 -3.546875 C 28.992188 -2.335938 29.578125 -0.910156 30.203125 0.734375 C 31.429688 3.992188 31.75 6.765625 31.15625 9.046875 C 30.550781 11.410156 29.085938 13.03125 26.765625 13.90625 C 26.628906 13.957031 26.484375 14 26.328125 14.03125 C 26.179688 14.070312 26.035156 14.113281 25.890625 14.15625 C 25.742188 14.195312 25.597656 14.234375 25.453125 14.265625 C 25.304688 14.304688 25.160156 14.332031 25.015625 14.34375 C 24.867188 14.351562 24.71875 14.363281 24.5625 14.375 C 24.414062 14.394531 24.269531 14.40625 24.125 14.40625 C 23.976562 14.40625 23.835938 14.394531 23.703125 14.375 C 23.566406 14.363281 23.421875 14.347656 23.265625 14.328125 C 23.117188 14.316406 22.972656 14.289062 22.828125 14.25 C 22.679688 14.21875 22.546875 14.179688 22.421875 14.140625 C 21.648438 13.910156 20.882812 13.535156 20.125 13.015625 C 19.957031 14.171875 19.628906 15.179688 19.140625 16.046875 C 18.328125 17.460938 17.066406 18.492188 15.359375 19.140625 C 12.785156 20.109375 10.359375 19.878906 8.078125 18.453125 C 5.878906 17.035156 4.097656 14.507812 2.734375 10.875 C 2.179688 9.40625 1.703125 8.003906 1.296875 6.671875 C 0.828125 5.304688 0.507812 4.210938 0.34375 3.390625 L 0.203125 2.578125 L 0.953125 2.296875 L 25.84375 -7.0625 L 26.625 -7.359375 Z M 7.453125 9.390625 C 7.609375 9.804688 7.769531 10.195312 7.9375 10.5625 C 8.101562 10.925781 8.273438 11.253906 8.453125 11.546875 C 8.628906 11.835938 8.8125 12.101562 9 12.34375 C 9.1875 12.59375 9.375 12.816406 9.5625 13.015625 C 9.757812 13.222656 9.957031 13.394531 10.15625 13.53125 C 10.644531 13.882812 11.128906 14.09375 11.609375 14.15625 C 12.085938 14.226562 12.625 14.148438 13.21875 13.921875 C 14.34375 13.503906 15.050781 12.722656 15.34375 11.578125 C 15.664062 10.285156 15.453125 8.648438 14.703125 6.671875 L 13.515625 3.5 L 6.40625 6.171875 C 6.6875 7.203125 7.035156 8.273438 7.453125 9.390625 Z M 19.109375 4.875 C 19.742188 6.5625 20.566406 7.753906 21.578125 8.453125 C 22.503906 9.085938 23.441406 9.226562 24.390625 8.875 C 25.421875 8.488281 26.046875 7.789062 26.265625 6.78125 C 26.503906 5.601562 26.296875 4.148438 25.640625 2.421875 C 25.566406 2.222656 25.492188 2.03125 25.421875 1.84375 C 25.347656 1.65625 25.273438 1.476562 25.203125 1.3125 C 25.128906 1.144531 25.0625 0.972656 25 0.796875 C 24.9375 0.628906 24.875 0.460938 24.8125 0.296875 C 24.75 0.210938 24.695312 0.113281 24.65625 0 C 24.625 -0.101562 24.582031 -0.203125 24.53125 -0.296875 C 24.476562 -0.398438 24.4375 -0.5 24.40625 -0.59375 L 17.96875 1.828125 Z M 19.109375 4.875 "/></g></g></g><g fill="#ffffff" fill-opacity="1"><g transform="translate(49.776209, 269.934881)"><g><path d="M 25.046875 -12.34375 L 33.859375 1.0625 L 34.390625 1.875 L 33.59375 2.40625 L 30.984375 4.125 L 30.171875 4.65625 L 29.640625 3.84375 L 23.34375 -5.71875 L 18.140625 -2.3125 L 23.484375 5.8125 L 24.015625 6.625 L 23.21875 7.15625 L 20.65625 8.828125 L 19.859375 9.359375 L 19.328125 8.546875 L 13.984375 0.421875 L 7.828125 4.46875 L 14.125 14.03125 L 14.65625 14.84375 L 13.859375 15.375 L 11.234375 17.09375 L 10.4375 17.609375 L 9.90625 16.796875 L 1.09375 3.390625 L 0.5625 2.59375 L 1.359375 2.078125 L 23.71875 -12.609375 L 24.515625 -13.140625 Z M 25.046875 -12.34375 "/></g></g></g><g fill="#ffffff" fill-opacity="1"><g transform="translate(69.23672, 297.177479)"><g><path d="M 21.890625 -17.34375 L 33.328125 -6.078125 L 34.015625 -5.40625 L 33.34375 -4.71875 L 31.15625 -2.5 L 30.46875 -1.796875 L 29.78125 -2.46875 L 21.609375 -10.5 L 17.25 -6.078125 L 24.1875 0.75 L 24.890625 1.421875 L 24.21875 2.109375 L 22.078125 4.28125 L 21.40625 4.96875 L 20.703125 4.296875 L 13.765625 -2.53125 L 8.59375 2.71875 L 16.765625 10.75 L 17.453125 11.421875 L 16.78125 12.109375 L 14.578125 14.34375 L 13.90625 15.015625 L 13.21875 14.34375 L 1.78125 3.078125 L 1.09375 2.421875 L 1.765625 1.75 L 20.53125 -17.3125 L 21.203125 -18 Z M 21.890625 -17.34375 "/></g></g></g><g fill="#ffffff" fill-opacity="1"><g transform="translate(94.026677, 319.839723)"><g><path d="M 14.953125 10.328125 L 15.96875 2.390625 C 16.207031 0.617188 16.023438 -0.847656 15.421875 -2.015625 C 15.253906 -2.347656 15.035156 -2.679688 14.765625 -3.015625 C 14.492188 -3.359375 14.171875 -3.6875 13.796875 -4 C 13.421875 -4.320312 13.007812 -4.644531 12.5625 -4.96875 L 6.8125 4.25 L 6.3125 5.0625 L 5.5 4.5625 L 2.421875 2.625 L 1.609375 2.125 L 2.109375 1.3125 L 16.21875 -21.328125 L 16.6875 -22.078125 L 17.453125 -21.65625 C 18.066406 -21.34375 18.664062 -21.035156 19.25 -20.734375 C 19.832031 -20.429688 20.394531 -20.132812 20.9375 -19.84375 C 22 -19.257812 23.148438 -18.582031 24.390625 -17.8125 C 25.828125 -16.914062 27.019531 -15.960938 27.96875 -14.953125 C 28.90625 -13.910156 29.5625 -12.851562 29.9375 -11.78125 C 30.351562 -10.65625 30.503906 -9.539062 30.390625 -8.4375 C 30.273438 -7.34375 29.898438 -6.289062 29.265625 -5.28125 C 28.148438 -3.476562 26.691406 -2.359375 24.890625 -1.921875 C 23.742188 -1.640625 22.472656 -1.601562 21.078125 -1.8125 C 21.160156 -1.570312 21.234375 -1.34375 21.296875 -1.125 C 21.359375 -0.914062 21.40625 -0.679688 21.4375 -0.421875 C 21.507812 -0.0976562 21.5625 0.222656 21.59375 0.546875 C 21.625 0.878906 21.632812 1.238281 21.625 1.625 C 21.625 2.351562 21.5625 3.207031 21.4375 4.1875 L 20.609375 11 L 20.46875 11.953125 L 19.546875 11.875 L 15.8125 11.421875 L 14.859375 11.28125 Z M 21.765625 -13.59375 C 21.390625 -13.820312 21.039062 -14.035156 20.71875 -14.234375 C 20.394531 -14.441406 20.082031 -14.617188 19.78125 -14.765625 C 19.695312 -14.816406 19.597656 -14.875 19.484375 -14.9375 C 19.367188 -15 19.265625 -15.054688 19.171875 -15.109375 C 19.085938 -15.160156 19.015625 -15.207031 18.953125 -15.25 L 15.1875 -9.1875 L 17.953125 -7.46875 C 19.328125 -6.613281 20.625 -6.210938 21.84375 -6.265625 C 22.90625 -6.347656 23.753906 -6.894531 24.390625 -7.90625 C 24.640625 -8.3125 24.785156 -8.734375 24.828125 -9.171875 C 24.878906 -9.617188 24.804688 -10.09375 24.609375 -10.59375 C 24.421875 -11.101562 24.09375 -11.609375 23.625 -12.109375 C 23.15625 -12.617188 22.535156 -13.113281 21.765625 -13.59375 Z M 21.765625 -13.59375 "/></g></g></g><g fill="#ffffff" fill-opacity="1"><g transform="translate(125.01943, 337.174109)"><g/></g></g><g fill="#ffffff" fill-opacity="1"><g transform="translate(147.152028, 345.244507)"><g><path d="M -0.234375 -1.359375 L 14.609375 -24.90625 L 14.953125 -25.46875 L 15.59375 -25.34375 L 19.5 -24.65625 L 20.140625 -24.53125 L 20.25 -23.90625 L 25.890625 3.3125 L 26.078125 4.234375 L 25.125 4.40625 L 21.640625 5.15625 L 20.703125 5.359375 L 20.515625 4.390625 L 19.046875 -3.015625 L 8.140625 -4.96875 L 4.21875 1.40625 L 3.703125 2.25 L 2.921875 1.734375 L 0.078125 -0.0625 L -0.75 -0.578125 Z M 10.890625 -9.515625 L 18.015625 -8.25 L 16.09375 -17.96875 Z M 10.890625 -9.515625 "/></g></g></g><g fill="#ffffff" fill-opacity="1"><g transform="translate(184.704532, 350.235719)"><g><path d="M 19.375 0.09375 L 3.484375 0.796875 L 2.53125 0.84375 L 2.484375 -0.109375 L 1.3125 -26.828125 L 1.265625 -27.78125 L 2.21875 -27.828125 L 5.859375 -27.984375 L 6.796875 -28.03125 L 6.84375 -27.078125 L 7.828125 -4.5625 L 19.140625 -5.0625 L 20.09375 -5.09375 L 20.140625 -4.140625 L 20.28125 -0.890625 L 20.328125 0.0625 Z M 19.375 0.09375 "/></g></g></g><g fill="#ffffff" fill-opacity="1"><g transform="translate(216.726059, 347.91128)"><g><path d="M -2.75 -13.171875 C -3.3125 -15.160156 -3.546875 -17.09375 -3.453125 -18.96875 C -3.359375 -20.875 -2.929688 -22.628906 -2.171875 -24.234375 C -1.398438 -25.847656 -0.3125 -27.238281 1.09375 -28.40625 C 1.800781 -29.007812 2.582031 -29.53125 3.4375 -29.96875 C 4.300781 -30.414062 5.238281 -30.78125 6.25 -31.0625 C 7.257812 -31.351562 8.25 -31.535156 9.21875 -31.609375 C 10.195312 -31.691406 11.144531 -31.648438 12.0625 -31.484375 C 12.96875 -31.335938 13.835938 -31.101562 14.671875 -30.78125 C 15.515625 -30.46875 16.3125 -30.0625 17.0625 -29.5625 C 18.539062 -28.613281 19.832031 -27.367188 20.9375 -25.828125 C 22.007812 -24.285156 22.820312 -22.546875 23.375 -20.609375 C 23.925781 -18.671875 24.15625 -16.757812 24.0625 -14.875 C 24.019531 -14.25 23.945312 -13.628906 23.84375 -13.015625 C 23.75 -12.398438 23.609375 -11.8125 23.421875 -11.25 C 23.242188 -10.6875 23.03125 -10.132812 22.78125 -9.59375 C 22.40625 -8.757812 21.941406 -7.984375 21.390625 -7.265625 C 20.835938 -6.554688 20.222656 -5.910156 19.546875 -5.328125 C 18.148438 -4.097656 16.421875 -3.1875 14.359375 -2.59375 C 12.296875 -2.007812 10.347656 -1.875 8.515625 -2.1875 C 8.066406 -2.269531 7.628906 -2.367188 7.203125 -2.484375 C 6.773438 -2.597656 6.351562 -2.734375 5.9375 -2.890625 C 5.519531 -3.054688 5.109375 -3.238281 4.703125 -3.4375 C 4.296875 -3.644531 3.914062 -3.875 3.5625 -4.125 C 2.0625 -5.09375 0.769531 -6.363281 -0.3125 -7.9375 C -1.382812 -9.488281 -2.195312 -11.234375 -2.75 -13.171875 Z M 2.65625 -14.703125 C 2.832031 -14.085938 3.046875 -13.492188 3.296875 -12.921875 C 3.546875 -12.347656 3.847656 -11.789062 4.203125 -11.25 C 4.554688 -10.738281 4.925781 -10.265625 5.3125 -9.828125 C 5.695312 -9.390625 6.128906 -9.003906 6.609375 -8.671875 C 6.722656 -8.554688 6.859375 -8.453125 7.015625 -8.359375 C 7.179688 -8.273438 7.34375 -8.1875 7.5 -8.09375 C 7.65625 -8.007812 7.816406 -7.921875 7.984375 -7.828125 C 8.160156 -7.742188 8.335938 -7.675781 8.515625 -7.625 C 8.691406 -7.570312 8.863281 -7.515625 9.03125 -7.453125 C 9.207031 -7.398438 9.390625 -7.34375 9.578125 -7.28125 C 10.640625 -7.0625 11.769531 -7.117188 12.96875 -7.453125 C 13.414062 -7.585938 13.828125 -7.734375 14.203125 -7.890625 C 14.585938 -8.054688 14.929688 -8.242188 15.234375 -8.453125 C 15.546875 -8.660156 15.832031 -8.878906 16.09375 -9.109375 C 16.90625 -9.847656 17.519531 -10.707031 17.9375 -11.6875 C 18.070312 -12.019531 18.179688 -12.363281 18.265625 -12.71875 C 18.359375 -13.082031 18.425781 -13.460938 18.46875 -13.859375 C 18.507812 -14.253906 18.535156 -14.65625 18.546875 -15.0625 C 18.554688 -16.351562 18.367188 -17.6875 17.984375 -19.0625 C 17.628906 -20.289062 17.109375 -21.410156 16.421875 -22.421875 C 15.765625 -23.460938 14.960938 -24.328125 14.015625 -25.015625 C 13.109375 -25.679688 12.113281 -26.140625 11.03125 -26.390625 C 9.96875 -26.609375 8.835938 -26.546875 7.640625 -26.203125 C 7.347656 -26.117188 7.054688 -26.023438 6.765625 -25.921875 C 6.472656 -25.816406 6.203125 -25.695312 5.953125 -25.5625 C 5.710938 -25.425781 5.476562 -25.28125 5.25 -25.125 C 5.03125 -24.96875 4.832031 -24.789062 4.65625 -24.59375 C 4.21875 -24.238281 3.847656 -23.847656 3.546875 -23.421875 C 3.242188 -22.992188 3 -22.523438 2.8125 -22.015625 C 2.375 -20.992188 2.132812 -19.867188 2.09375 -18.640625 C 2.082031 -17.359375 2.269531 -16.046875 2.65625 -14.703125 Z M 2.65625 -14.703125 "/></g></g></g><g fill="#ffffff" fill-opacity="1"><g transform="translate(256.1072, 334.610459)"><g><path d="M 17.34375 -8.625 L 3.46875 -0.84375 L 2.640625 -0.390625 L 2.171875 -1.21875 L -10.890625 -24.5625 L -11.359375 -25.390625 L -10.53125 -25.84375 L -7.359375 -27.625 L -6.53125 -28.09375 L -6.0625 -27.265625 L 4.953125 -7.59375 L 14.828125 -13.125 L 15.65625 -13.59375 L 16.109375 -12.75 L 17.703125 -9.921875 L 18.171875 -9.09375 Z M 17.34375 -8.625 "/></g></g></g><g fill="#ffffff" fill-opacity="1"><g transform="translate(283.447091, 318.107329)"><g><path d="M -1.203125 -0.65625 L -10.65625 -26.84375 L -10.890625 -27.453125 L -10.390625 -27.890625 L -7.4375 -30.53125 L -6.953125 -30.96875 L -6.390625 -30.671875 L 18.53125 -18.375 L 19.375 -17.953125 L 18.9375 -17.109375 L 17.359375 -13.890625 L 16.953125 -13.015625 L 16.09375 -13.46875 L 9.34375 -16.875 L 1.09375 -9.46875 L 3.703125 -2.453125 L 4.0625 -1.546875 L 3.15625 -1.234375 L 0 -0.109375 L -0.90625 0.25 Z M -0.796875 -14.4375 L 4.578125 -19.265625 L -4.28125 -23.75 Z M -0.796875 -14.4375 "/></g></g></g><g fill="#ffffff" fill-opacity="1"><g transform="translate(310.653665, 291.526831)"><g><path d="M -6.015625 -18.359375 L -11.78125 -31.140625 L -12.1875 -31.984375 L -11.328125 -32.421875 L -8.328125 -33.8125 L -7.421875 -34.21875 L -7.03125 -33.296875 L 0 -17.375 L 8.140625 -11.734375 L 8.921875 -11.1875 L 8.375 -10.40625 L 6.3125 -7.421875 L 5.765625 -6.640625 L 4.984375 -7.1875 L -3.15625 -12.828125 L -20.5625 -13.796875 L -21.53125 -13.828125 L -21.453125 -14.796875 L -21.234375 -18.34375 L -21.15625 -19.3125 L -20.234375 -19.25 Z M -6.015625 -18.359375 "/></g></g></g><g fill="#ffffff" fill-opacity="1"><g transform="translate(329.764576, 261.69655)"><g><path d="M -1.375 -0.03125 L -21.5625 -19.21875 L -22.046875 -19.65625 L -21.796875 -20.265625 L -20.34375 -23.953125 L -20.109375 -24.5625 L -19.46875 -24.546875 L 8.328125 -24.734375 L 9.265625 -24.734375 L 9.25 -23.78125 L 9.28125 -20.203125 L 9.328125 -19.25 L 8.34375 -19.25 L 0.78125 -19.265625 L -3.265625 -8.953125 L 2.21875 -3.859375 L 2.9375 -3.1875 L 2.265625 -2.515625 L -0.0625 -0.09375 L -0.703125 0.625 Z M -7.1875 -12.546875 L -4.546875 -19.28125 L -14.46875 -19.3125 Z M -7.1875 -12.546875 "/></g></g></g><g fill="#ffffff" fill-opacity="1"><g transform="translate(342.353293, 225.602511)"><g><path d="M -17.15625 -10.09375 L 1 -7.765625 L 1.953125 -7.640625 L 1.828125 -6.6875 L 1.390625 -3.28125 L 1.265625 -2.34375 L 0.3125 -2.46875 L -26.21875 -5.875 L -27.171875 -6 L -27.046875 -6.9375 L -26.4375 -11.71875 L -26.359375 -12.28125 L -25.84375 -12.484375 L -5.828125 -20.015625 L -24.09375 -22.359375 L -25.046875 -22.484375 L -24.921875 -23.4375 L -24.484375 -26.84375 L -24.375 -27.78125 L -23.421875 -27.65625 L 3.109375 -24.25 L 4.0625 -24.125 L 3.953125 -23.1875 L 3.625 -20.640625 L 3.34375 -18.484375 L 3.265625 -17.90625 L 2.734375 -17.71875 Z M -17.15625 -10.09375 "/></g></g></g><g clip-path="url(#c0498ddbca)"><path fill="#000000" d="M 287.101562 208.027344 L 282.535156 209.351562 C 220.34375 185.292969 194.597656 221.859375 194.597656 221.859375 L 180.40625 221.859375 C 180.40625 221.859375 154.664062 185.292969 92.472656 209.351562 L 87.894531 208.027344 L 97.640625 196.003906 C 97.640625 196.003906 144.832031 172.625 187.496094 213.320312 C 230.160156 172.625 277.355469 196.003906 277.355469 196.003906 Z M 287.101562 208.027344 " fill-opacity="1" fill-rule="nonzero"/></g><g clip-path="url(#a85dbf8246)"><path fill="#3399cc" d="M 183.128906 205.589844 C 170.578125 169.421875 110.589844 183.9375 110.589844 183.9375 L 133.328125 153.140625 L 183.726562 153.699219 Z M 183.128906 205.589844 " fill-opacity="1" fill-rule="nonzero"/></g><g clip-path="url(#4a3e611dd8)"><path fill="#3399cc" d="M 191.871094 205.589844 C 204.421875 169.421875 264.410156 183.9375 264.410156 183.9375 L 241.671875 153.140625 L 191.273438 153.699219 Z M 191.871094 205.589844 " fill-opacity="1" fill-rule="nonzero"/></g></svg>